<?xml version="1.0" encoding="UTF-8"?>
<svg id="Layer_2" data-name="Layer 2" xmlns="http://www.w3.org/2000/svg" viewBox="0 0 138.38 102.05">
  <defs>
    <style>
      .cls-1 {
        fill: #fff;
      }
    </style>
  </defs>
  <g id="Layer_1-2" data-name="Layer 1">
    <g>
      <path class="cls-1" d="M84.76,59.15c4.24,2.29,7.99,1.82,6.94,5.06-1.8,5.55-5.57,9.54-7.92,15.01-2.16,5.03-4.52,9.74-7.4,14.38-15.73,10.6-35.67,11.17-52.05,1.98C3.5,83.9-5.41,59.03,3.35,36.71c4.97-12.66,14.36-23.04,26.53-29.42C44.8-.52,62.54-2.79,78.07,4.13c9.12,4.07,17,11.84,17.81,21.97.46,5.73-2.55,10.47-7.75,12.75-2.99,1.31-5.71,3.32-7.3,6.12-2.96,5.2-1.27,11.38,3.93,14.19ZM76.99,22.26c0-6.05-4.91-10.96-10.96-10.96s-10.96,4.91-10.96,10.96,4.91,10.96,10.96,10.96,10.96-4.91,10.96-10.96ZM42.86,29.03c0-6.09-4.94-11.02-11.02-11.02s-11.02,4.93-11.02,11.02,4.94,11.02,11.02,11.02,11.02-4.93,11.02-11.02ZM30.51,55.85c0-6.06-4.91-10.96-10.97-10.96s-10.97,4.91-10.97,10.96,4.91,10.96,10.97,10.96,10.97-4.91,10.97-10.96ZM77.76,74.51c0-5.08-4.12-9.2-9.21-9.2s-9.21,4.12-9.21,9.2,4.12,9.2,9.21,9.2,9.21-4.12,9.21-9.2ZM46.98,80.46c0-6.06-4.91-10.97-10.98-10.97s-10.98,4.91-10.98,10.97,4.91,10.97,10.98,10.97,10.98-4.91,10.98-10.97Z"/>
      <path class="cls-1" d="M115.68,61.48c-3.38-2.51-6.91-4.59-10.94-5.63.36-.84.38-1.93.88-2.96,2.33-4.82,4.87-9.19,7.64-13.83l18.26-30.59c1.09-1.83,3.05-2.74,5.08-1.74,1.63.81,2.24,2.94,1.45,4.86l-10.02,24.21c-3.46,8.36-6.88,16.41-10.8,24.52-.37.76-1.02.97-1.54,1.16Z"/>
      <path class="cls-1" d="M99.06,70.55c2.36.07,4.35,2.12,6.4,2.78.89.71,1.77.81,2.43.98,6.16,11.83-4.88,22.65-16.29,26.64-2.36.82-4.6,1.47-7.28.89,4.55-7.24-.09-14.81,3.64-22.98,2.01-4.42,6.17-8.44,11.11-8.3Z"/>
      <path class="cls-1" d="M115.68,61.48c-1.86,3.76-4.15,7.69-6.41,11.31-2.99-2.22-6.19-4.16-9.9-4.32l5.36-12.61c4.03,1.04,7.56,3.12,10.94,5.63Z"/>
      <path class="cls-1" d="M109.27,72.79c-.34.54-.28,1.43-1.39,1.52-.66-.17-1.54-.26-2.43-.98-2.04-.65-4.03-2.71-6.4-2.78-.27-.85.05-1.46.32-2.09,3.71.16,6.91,2.1,9.9,4.32Z"/>
    </g>
  </g>
</svg>